<?xml version="1.0" encoding="iso-8859-1"?>
<!-- Generator: Adobe Illustrator 19.0.0, SVG Export Plug-In . SVG Version: 6.00 Build 0)  -->
<svg version="1.1" id="Layer_1" xmlns="http://www.w3.org/2000/svg" xmlns:xlink="http://www.w3.org/1999/xlink" x="0px" y="0px"
	 viewBox="0 0 512 512" style="enable-background:new 0 0 512 512;" xml:space="preserve">
<circle style="fill:#94C254;" cx="255.997" cy="352.741" r="43.751"/>
<path style="fill:#23A24D;" d="M375.724,380.676L256,500.4L136.276,380.676c9.592-8.017,15.816-19.928,15.816-33.404
	s-6.224-25.386-15.805-33.415l86.298-86.298c8.028,9.581,19.939,15.805,33.415,15.805s25.386-6.224,33.415-15.805l86.298,86.298
	c-9.581,8.028-15.805,19.939-15.805,33.415S366.132,372.658,375.724,380.676z M299.751,352.741
	c0-24.161-19.589-43.751-43.751-43.751c-24.161,0-43.751,19.589-43.751,43.751c0,24.161,19.589,43.751,43.751,43.751
	C280.161,396.491,299.751,376.902,299.751,352.741z"/>
<path style="fill:#A48770;" d="M436.472,319.928l-60.748,60.748c-9.592-8.017-15.816-19.928-15.816-33.404
	s6.224-25.386,15.805-33.415l-86.298-86.298c-8.028,9.581-19.939,15.805-33.415,15.805s-25.386-6.224-33.415-15.805l-86.298,86.298
	c9.581,8.028,15.805,19.939,15.805,33.415s-6.224,25.386-15.816,33.404l-60.748-60.748l5.469-5.469l54.688-54.688l54.688-54.688
	L256,139.456l65.626,65.626l54.688,54.688l54.688,54.688L436.472,319.928z"/>
<g>
	<path style="fill:#75AF44;" d="M502.098,254.301l-65.626,65.626l-5.469-5.469V81.278
		C474.962,125.729,502.098,186.849,502.098,254.301z"/>
	<path style="fill:#75AF44;" d="M376.315,39.573V259.77l-54.688-54.688V17.052C340.909,22.368,359.241,29.98,376.315,39.573z"/>
	<path style="fill:#75AF44;" d="M256,8.203v131.252l-65.626,65.626V17.052C211.265,11.288,233.271,8.203,256,8.203z"/>
	<path style="fill:#75AF44;" d="M135.685,41.016V259.77l-54.688,54.688V84.767l-3.139-0.262
		c16.713-17.522,35.974-32.583,57.204-44.582L135.685,41.016z"/>
</g>
<g>
	<path style="fill:#43B05C;" d="M431.003,81.278v233.181l-54.688-54.688V39.573C396.473,50.893,414.87,64.959,431.003,81.278z"/>
	<path style="fill:#43B05C;" d="M321.626,17.052v188.03L256,139.456V8.203C278.729,8.203,300.735,11.288,321.626,17.052z"/>
	<path style="fill:#43B05C;" d="M190.374,17.052v188.03l-54.688,54.688V41.016l-0.623-1.094
		C152.311,30.166,170.861,22.433,190.374,17.052z"/>
	<path style="fill:#43B05C;" d="M80.997,84.767v229.692l-5.469,5.469L9.902,254.301c0-65.834,25.846-125.63,67.956-169.797
		L80.997,84.767z"/>
</g>
<path d="M436.837,75.511c-16.751-16.944-35.762-31.442-56.504-43.09c-17.843-10.024-36.861-17.856-56.525-23.278
	C301.819,3.077,279.004,0,256,0s-45.819,3.077-67.807,9.144c-19.912,5.492-39.146,13.445-57.168,23.637
	C109.189,45.122,89.303,60.62,71.921,78.843C26.638,126.338,1.699,188.651,1.699,254.301v3.397L256,512l254.301-254.301v-3.397
	C510.301,186.911,484.212,123.414,436.837,75.511z M384.518,256.372V54.088c13.762,8.851,26.588,19.099,38.282,30.603v209.963
	L384.518,256.372z M89.12,84.767c11.728-11.545,24.573-21.823,38.362-30.69v202.295L89.2,294.654V84.767H89.12z M143.889,44.451
	c12.262-6.567,25.085-12.034,38.282-16.339v173.571l-38.282,38.282V44.451z M198.577,23.392c16.066-3.98,32.564-6.278,49.22-6.845
	v119.511l-49.22,49.22V23.392z M264.203,16.547c16.656,0.567,33.152,2.866,49.22,6.845v161.886l-49.22-49.22L264.203,16.547
	L264.203,16.547z M329.829,28.112c13.193,4.303,26.015,9.775,38.282,16.345v195.509l-38.282-38.282V28.112z M72.794,102.531v203.062
	l-54.666-54.664C18.889,196.286,38.128,144.287,72.794,102.531z M256,488.799l-108.111-108.11
	c7.965-9.328,12.407-21.114,12.407-33.416c0-12.297-4.44-24.085-12.401-33.421l74.685-74.685c9.336,7.962,21.124,12.4,33.421,12.4
	s24.086-4.439,33.421-12.4l74.685,74.685c-7.962,9.336-12.401,21.124-12.401,33.421c0,12.303,4.442,24.088,12.407,33.416
	L256,488.799z M288.881,215.423l-5.754,6.867c-6.854,8.179-16.74,12.87-27.127,12.87c-10.386,0-20.273-4.691-27.127-12.87
	l-5.754-6.867l-98.968,98.969l6.867,5.753c8.179,6.854,12.87,16.741,12.87,27.127c0,7.924-2.736,15.547-7.66,21.755L87.13,319.928
	L256,151.056l168.87,168.871l-49.099,49.099c-4.924-6.208-7.66-13.831-7.66-21.755c0-10.386,4.691-20.273,12.87-27.127l6.867-5.753
	L288.881,215.423z M439.206,305.592V102.543c34.686,41.735,53.906,93.6,54.666,148.383L439.206,305.592z"/>
<path d="M256,300.787c-28.647,0-51.954,23.307-51.954,51.954c0,28.647,23.307,51.954,51.954,51.954s51.954-23.307,51.954-51.954
	C307.954,324.094,284.648,300.787,256,300.787z M256,388.288c-19.601,0-35.548-15.947-35.548-35.548
	c0-19.6,15.946-35.547,35.548-35.547s35.547,15.947,35.547,35.547C291.548,372.341,275.601,388.288,256,388.288z"/>
<g>
</g>
<g>
</g>
<g>
</g>
<g>
</g>
<g>
</g>
<g>
</g>
<g>
</g>
<g>
</g>
<g>
</g>
<g>
</g>
<g>
</g>
<g>
</g>
<g>
</g>
<g>
</g>
<g>
</g>
</svg>
